<?xml version="1.0" standalone="no"?>
<!DOCTYPE svg PUBLIC "-//W3C//DTD SVG 20010904//EN"
 "http://www.w3.org/TR/2001/REC-SVG-20010904/DTD/svg10.dtd">
<svg version="1.0" xmlns="http://www.w3.org/2000/svg"
 width="512.000000pt" height="512.000000pt" viewBox="0 0 512.000000 512.000000"
 preserveAspectRatio="xMidYMid meet">
<metadata>
Created by potrace 1.11, written by Peter Selinger 2001-2013
</metadata>
<g transform="translate(0.000000,512.000000) scale(0.100000,-0.100000)"
fill="#000000" stroke="none">
<path d="M0 2560 l0 -2560 2560 0 2560 0 0 2560 0 2560 -2560 0 -2560 0 0
-2560z m1860 492 c0 -750 -4 -1187 -11 -1242 -22 -185 -57 -308 -120 -433 -73
-145 -172 -254 -299 -329 -75 -44 -255 -103 -365 -119 -173 -25 -485 -8 -625
34 -41 12 -45 16 -43 43 3 36 51 408 58 450 l5 31 78 -18 c178 -43 358 -34
471 23 107 54 166 143 209 318 14 57 16 201 19 1233 l4 1167 309 0 310 0 0
-1158z m2865 893 l0 -260 -557 -3 -558 -2 0 -425 0 -425 518 -2 517 -3 3 -257
2 -258 -520 0 -520 0 0 -675 0 -675 -310 0 -310 0 0 1625 0 1625 868 -2 867
-3 0 -260z"/>
</g>
</svg>
